<?xml version="1.0" encoding="UTF-8" standalone="no"?>
<!DOCTYPE svg PUBLIC "-//W3C//DTD SVG 1.1//EN"
 "http://www.w3.org/Graphics/SVG/1.1/DTD/svg11.dtd">
<!-- Generated by graphviz version 6.0.2 (20221011.1828)
 -->
<!-- Pages: 1 -->
<svg width="526pt" height="260pt"
 viewBox="0.00 0.00 526.50 260.00" xmlns="http://www.w3.org/2000/svg" xmlns:xlink="http://www.w3.org/1999/xlink">
<g id="graph0" class="graph" transform="scale(1 1) rotate(0) translate(4 256)">
<polygon fill="white" stroke="none" points="-4,4 -4,-256 522.5,-256 522.5,4 -4,4"/>
<!-- 00C31560 -->
<g id="node1" class="node">
<title>00C31560</title>
<ellipse fill="none" stroke="blue" cx="226.5" cy="-234" rx="33.6" ry="18"/>
<text text-anchor="middle" x="226.5" y="-230.3" font-family="Times New Roman,serif" font-size="14.00">animal</text>
</g>
<!-- 00C31780 -->
<g id="node2" class="node">
<title>00C31780</title>
<ellipse fill="none" stroke="blue" cx="188.5" cy="-162" rx="27" ry="18"/>
<text text-anchor="middle" x="188.5" y="-158.3" font-family="Times New Roman,serif" font-size="14.00">tree</text>
</g>
<!-- 00C31560&#45;&gt;00C31780 -->
<g id="edge1" class="edge">
<title>00C31560&#45;&gt;00C31780</title>
<path fill="none" stroke="black" d="M217.49,-216.41C212.95,-208.04 207.34,-197.71 202.27,-188.37"/>
<polygon fill="black" stroke="black" points="205.28,-186.59 197.44,-179.47 199.13,-189.93 205.28,-186.59"/>
</g>
<!-- 00C31708 -->
<g id="node7" class="node">
<title>00C31708</title>
<ellipse fill="none" stroke="blue" cx="270.5" cy="-162" rx="27" ry="18"/>
<text text-anchor="middle" x="270.5" y="-158.3" font-family="Times New Roman,serif" font-size="14.00">real</text>
</g>
<!-- 00C31560&#45;&gt;00C31708 -->
<g id="edge6" class="edge">
<title>00C31560&#45;&gt;00C31708</title>
<path fill="none" stroke="black" d="M236.7,-216.76C242.09,-208.19 248.82,-197.49 254.85,-187.9"/>
<polygon fill="black" stroke="black" points="257.99,-189.48 260.35,-179.15 252.06,-185.75 257.99,-189.48"/>
</g>
<!-- 00C38220 -->
<g id="node3" class="node">
<title>00C38220</title>
<ellipse fill="none" stroke="blue" cx="109.5" cy="-90" rx="27" ry="18"/>
<text text-anchor="middle" x="109.5" y="-86.3" font-family="Times New Roman,serif" font-size="14.00">car</text>
</g>
<!-- 00C31780&#45;&gt;00C38220 -->
<g id="edge2" class="edge">
<title>00C31780&#45;&gt;00C38220</title>
<path fill="none" stroke="black" d="M172.89,-147.17C161.42,-137.01 145.65,-123.03 132.7,-111.56"/>
<polygon fill="black" stroke="black" points="134.88,-108.81 125.07,-104.8 130.24,-114.05 134.88,-108.81"/>
</g>
<!-- 00C304B0 -->
<g id="node6" class="node">
<title>00C304B0</title>
<ellipse fill="none" stroke="blue" cx="188.5" cy="-90" rx="27" ry="18"/>
<text text-anchor="middle" x="188.5" y="-86.3" font-family="Times New Roman,serif" font-size="14.00">oak</text>
</g>
<!-- 00C31780&#45;&gt;00C304B0 -->
<g id="edge5" class="edge">
<title>00C31780&#45;&gt;00C304B0</title>
<path fill="none" stroke="black" d="M188.5,-143.7C188.5,-135.98 188.5,-126.71 188.5,-118.11"/>
<polygon fill="black" stroke="black" points="192,-118.1 188.5,-108.1 185,-118.1 192,-118.1"/>
</g>
<!-- 00C37E60 -->
<g id="node4" class="node">
<title>00C37E60</title>
<ellipse fill="none" stroke="blue" cx="32.5" cy="-18" rx="32.49" ry="18"/>
<text text-anchor="middle" x="32.5" y="-14.3" font-family="Times New Roman,serif" font-size="14.00">house</text>
</g>
<!-- 00C38220&#45;&gt;00C37E60 -->
<g id="edge3" class="edge">
<title>00C38220&#45;&gt;00C37E60</title>
<path fill="none" stroke="black" d="M93.92,-74.83C83.17,-65.07 68.69,-51.9 56.48,-40.8"/>
<polygon fill="black" stroke="black" points="58.61,-38.01 48.85,-33.87 53.9,-43.19 58.61,-38.01"/>
</g>
<!-- 00C37F50 -->
<g id="node5" class="node">
<title>00C37F50</title>
<ellipse fill="none" stroke="blue" cx="109.5" cy="-18" rx="27" ry="18"/>
<text text-anchor="middle" x="109.5" y="-14.3" font-family="Times New Roman,serif" font-size="14.00">F1</text>
</g>
<!-- 00C38220&#45;&gt;00C37F50 -->
<g id="edge4" class="edge">
<title>00C38220&#45;&gt;00C37F50</title>
<path fill="none" stroke="black" d="M109.5,-71.7C109.5,-63.98 109.5,-54.71 109.5,-46.11"/>
<polygon fill="black" stroke="black" points="113,-46.1 109.5,-36.1 106,-46.1 113,-46.1"/>
</g>
<!-- 00C34878 -->
<g id="node8" class="node">
<title>00C34878</title>
<ellipse fill="none" stroke="blue" cx="270.5" cy="-90" rx="30.59" ry="18"/>
<text text-anchor="middle" x="270.5" y="-86.3" font-family="Times New Roman,serif" font-size="14.00">horse</text>
</g>
<!-- 00C31708&#45;&gt;00C34878 -->
<g id="edge7" class="edge">
<title>00C31708&#45;&gt;00C34878</title>
<path fill="none" stroke="black" d="M270.5,-143.7C270.5,-135.98 270.5,-126.71 270.5,-118.11"/>
<polygon fill="black" stroke="black" points="274,-118.1 270.5,-108.1 267,-118.1 274,-118.1"/>
</g>
<!-- 00C317F8 -->
<g id="node11" class="node">
<title>00C317F8</title>
<ellipse fill="none" stroke="blue" cx="393.5" cy="-90" rx="34.39" ry="18"/>
<text text-anchor="middle" x="393.5" y="-86.3" font-family="Times New Roman,serif" font-size="14.00">human</text>
</g>
<!-- 00C31708&#45;&gt;00C317F8 -->
<g id="edge10" class="edge">
<title>00C31708&#45;&gt;00C317F8</title>
<path fill="none" stroke="black" d="M290.53,-149.6C309.92,-138.57 339.59,-121.68 362.11,-108.86"/>
<polygon fill="black" stroke="black" points="364.01,-111.81 370.97,-103.82 360.54,-105.73 364.01,-111.81"/>
</g>
<!-- 00C34C38 -->
<g id="node9" class="node">
<title>00C34C38</title>
<ellipse fill="none" stroke="blue" cx="190.5" cy="-18" rx="36.29" ry="18"/>
<text text-anchor="middle" x="190.5" y="-14.3" font-family="Times New Roman,serif" font-size="14.00">dragon</text>
</g>
<!-- 00C34878&#45;&gt;00C34C38 -->
<g id="edge8" class="edge">
<title>00C34878&#45;&gt;00C34C38</title>
<path fill="none" stroke="black" d="M253.92,-74.5C242.81,-64.77 227.97,-51.79 215.44,-40.83"/>
<polygon fill="black" stroke="black" points="217.43,-37.92 207.6,-33.97 212.82,-43.19 217.43,-37.92"/>
</g>
<!-- 00C34BC0 -->
<g id="node10" class="node">
<title>00C34BC0</title>
<ellipse fill="none" stroke="blue" cx="283.5" cy="-18" rx="38.19" ry="18"/>
<text text-anchor="middle" x="283.5" y="-14.3" font-family="Times New Roman,serif" font-size="14.00">unicorn</text>
</g>
<!-- 00C34878&#45;&gt;00C34BC0 -->
<g id="edge9" class="edge">
<title>00C34878&#45;&gt;00C34BC0</title>
<path fill="none" stroke="black" d="M273.64,-72.05C275.08,-64.35 276.81,-55.03 278.42,-46.36"/>
<polygon fill="black" stroke="black" points="281.9,-46.75 280.29,-36.28 275.02,-45.47 281.9,-46.75"/>
</g>
<!-- 00C34968 -->
<g id="node12" class="node">
<title>00C34968</title>
<ellipse fill="none" stroke="blue" cx="393.5" cy="-18" rx="53.09" ry="18"/>
<text text-anchor="middle" x="393.5" y="-14.3" font-family="Times New Roman,serif" font-size="14.00">poltorashka</text>
</g>
<!-- 00C317F8&#45;&gt;00C34968 -->
<g id="edge11" class="edge">
<title>00C317F8&#45;&gt;00C34968</title>
<path fill="none" stroke="black" d="M393.5,-71.7C393.5,-63.98 393.5,-54.71 393.5,-46.11"/>
<polygon fill="black" stroke="black" points="397,-46.1 393.5,-36.1 390,-46.1 397,-46.1"/>
</g>
<!-- 00C348F0 -->
<g id="node13" class="node">
<title>00C348F0</title>
<ellipse fill="none" stroke="blue" cx="491.5" cy="-18" rx="27" ry="18"/>
<text text-anchor="middle" x="491.5" y="-14.3" font-family="Times New Roman,serif" font-size="14.00">ded</text>
</g>
<!-- 00C317F8&#45;&gt;00C348F0 -->
<g id="edge12" class="edge">
<title>00C317F8&#45;&gt;00C348F0</title>
<path fill="none" stroke="black" d="M413.33,-74.83C428.24,-64.18 448.82,-49.48 465.12,-37.84"/>
<polygon fill="black" stroke="black" points="467.57,-40.39 473.67,-31.73 463.5,-34.7 467.57,-40.39"/>
</g>
</g>
</svg>
