<?xml version="1.0" encoding="UTF-8" standalone="no"?>
<!DOCTYPE svg PUBLIC "-//W3C//DTD SVG 1.1//EN"
 "http://www.w3.org/Graphics/SVG/1.1/DTD/svg11.dtd">
<!-- Generated by graphviz version 6.0.2 (20221011.1828)
 -->
<!-- Pages: 1 -->
<svg width="232pt" height="260pt"
 viewBox="0.00 0.00 231.65 260.00" xmlns="http://www.w3.org/2000/svg" xmlns:xlink="http://www.w3.org/1999/xlink">
<g id="graph0" class="graph" transform="scale(1 1) rotate(0) translate(4 256)">
<polygon fill="white" stroke="none" points="-4,4 -4,-256 227.65,-256 227.65,4 -4,4"/>
<!-- 00E51560 -->
<g id="node1" class="node">
<title>00E51560</title>
<ellipse fill="none" stroke="blue" cx="81.65" cy="-234" rx="27" ry="18"/>
<text text-anchor="middle" x="81.65" y="-230.3" font-family="Times New Roman,serif" font-size="14.00">real</text>
</g>
<!-- 00E51740 -->
<g id="node2" class="node">
<title>00E51740</title>
<ellipse fill="none" stroke="blue" cx="39.65" cy="-162" rx="39.79" ry="18"/>
<text text-anchor="middle" x="39.65" y="-158.3" font-family="Times New Roman,serif" font-size="14.00">unknow</text>
</g>
<!-- 00E51560&#45;&gt;00E51740 -->
<g id="edge1" class="edge">
<title>00E51560&#45;&gt;00E51740</title>
<path fill="none" stroke="black" d="M72.12,-217.12C67.05,-208.68 60.71,-198.1 54.97,-188.55"/>
<polygon fill="black" stroke="black" points="57.87,-186.57 49.72,-179.8 51.87,-190.17 57.87,-186.57"/>
</g>
<!-- 00E516C8 -->
<g id="node3" class="node">
<title>00E516C8</title>
<ellipse fill="none" stroke="blue" cx="124.65" cy="-162" rx="27" ry="18"/>
<text text-anchor="middle" x="124.65" y="-158.3" font-family="Times New Roman,serif" font-size="14.00">ded</text>
</g>
<!-- 00E51560&#45;&gt;00E516C8 -->
<g id="edge2" class="edge">
<title>00E51560&#45;&gt;00E516C8</title>
<path fill="none" stroke="black" d="M91.4,-217.12C96.79,-208.34 103.6,-197.26 109.65,-187.42"/>
<polygon fill="black" stroke="black" points="112.68,-189.17 114.93,-178.82 106.71,-185.51 112.68,-189.17"/>
</g>
<!-- 00E54878 -->
<g id="node4" class="node">
<title>00E54878</title>
<ellipse fill="none" stroke="blue" cx="88.65" cy="-90" rx="27" ry="18"/>
<text text-anchor="middle" x="88.65" y="-86.3" font-family="Times New Roman,serif" font-size="14.00">sbvf</text>
</g>
<!-- 00E516C8&#45;&gt;00E54878 -->
<g id="edge3" class="edge">
<title>00E516C8&#45;&gt;00E54878</title>
<path fill="none" stroke="black" d="M116.3,-144.76C111.93,-136.28 106.5,-125.71 101.61,-116.2"/>
<polygon fill="black" stroke="black" points="104.64,-114.44 96.95,-107.15 98.41,-117.64 104.64,-114.44"/>
</g>
<!-- 00E517B8 -->
<g id="node5" class="node">
<title>00E517B8</title>
<ellipse fill="none" stroke="blue" cx="160.65" cy="-90" rx="27" ry="18"/>
<text text-anchor="middle" x="160.65" y="-86.3" font-family="Times New Roman,serif" font-size="14.00">svsf</text>
</g>
<!-- 00E516C8&#45;&gt;00E517B8 -->
<g id="edge4" class="edge">
<title>00E516C8&#45;&gt;00E517B8</title>
<path fill="none" stroke="black" d="M133,-144.76C137.36,-136.28 142.79,-125.71 147.69,-116.2"/>
<polygon fill="black" stroke="black" points="150.88,-117.64 152.34,-107.15 144.66,-114.44 150.88,-117.64"/>
</g>
<!-- 00E54968 -->
<g id="node6" class="node">
<title>00E54968</title>
<ellipse fill="none" stroke="blue" cx="124.65" cy="-18" rx="27" ry="18"/>
<text text-anchor="middle" x="124.65" y="-14.3" font-family="Times New Roman,serif" font-size="14.00">yuth</text>
</g>
<!-- 00E517B8&#45;&gt;00E54968 -->
<g id="edge5" class="edge">
<title>00E517B8&#45;&gt;00E54968</title>
<path fill="none" stroke="black" d="M152.3,-72.76C147.93,-64.28 142.5,-53.71 137.61,-44.2"/>
<polygon fill="black" stroke="black" points="140.64,-42.44 132.95,-35.15 134.41,-45.64 140.64,-42.44"/>
</g>
<!-- 00E548F0 -->
<g id="node7" class="node">
<title>00E548F0</title>
<ellipse fill="none" stroke="blue" cx="196.65" cy="-18" rx="27" ry="18"/>
<text text-anchor="middle" x="196.65" y="-14.3" font-family="Times New Roman,serif" font-size="14.00">sad</text>
</g>
<!-- 00E517B8&#45;&gt;00E548F0 -->
<g id="edge6" class="edge">
<title>00E517B8&#45;&gt;00E548F0</title>
<path fill="none" stroke="black" d="M169,-72.76C173.36,-64.28 178.79,-53.71 183.69,-44.2"/>
<polygon fill="black" stroke="black" points="186.88,-45.64 188.34,-35.15 180.66,-42.44 186.88,-45.64"/>
</g>
</g>
</svg>
