<?xml version="1.0" encoding="UTF-8" standalone="no"?>
<!DOCTYPE svg PUBLIC "-//W3C//DTD SVG 1.1//EN"
 "http://www.w3.org/Graphics/SVG/1.1/DTD/svg11.dtd">
<!-- Generated by graphviz version 6.0.2 (20221011.1828)
 -->
<!-- Pages: 1 -->
<svg width="232pt" height="260pt"
 viewBox="0.00 0.00 231.65 260.00" xmlns="http://www.w3.org/2000/svg" xmlns:xlink="http://www.w3.org/1999/xlink">
<g id="graph0" class="graph" transform="scale(1 1) rotate(0) translate(4 256)">
<polygon fill="white" stroke="none" points="-4,4 -4,-256 227.65,-256 227.65,4 -4,4"/>
<!-- 008C1560 -->
<g id="node1" class="node">
<title>008C1560</title>
<ellipse fill="none" stroke="blue" cx="141" cy="-234" rx="27" ry="18"/>
<text text-anchor="middle" x="141" y="-230.3" font-family="Times New Roman,serif" font-size="14.00">real</text>
</g>
<!-- 008C1740 -->
<g id="node2" class="node">
<title>008C1740</title>
<ellipse fill="none" stroke="blue" cx="99" cy="-162" rx="27" ry="18"/>
<text text-anchor="middle" x="99" y="-158.3" font-family="Times New Roman,serif" font-size="14.00">ded</text>
</g>
<!-- 008C1560&#45;&gt;008C1740 -->
<g id="edge1" class="edge">
<title>008C1560&#45;&gt;008C1740</title>
<path fill="none" stroke="black" d="M131.47,-217.12C126.33,-208.56 119.88,-197.8 114.08,-188.13"/>
<polygon fill="black" stroke="black" points="116.93,-186.08 108.78,-179.31 110.93,-189.68 116.93,-186.08"/>
</g>
<!-- 008C16C8 -->
<g id="node7" class="node">
<title>008C16C8</title>
<ellipse fill="none" stroke="blue" cx="184" cy="-162" rx="39.79" ry="18"/>
<text text-anchor="middle" x="184" y="-158.3" font-family="Times New Roman,serif" font-size="14.00">unknow</text>
</g>
<!-- 008C1560&#45;&gt;008C16C8 -->
<g id="edge6" class="edge">
<title>008C1560&#45;&gt;008C16C8</title>
<path fill="none" stroke="black" d="M150.76,-217.12C155.94,-208.68 162.44,-198.1 168.31,-188.55"/>
<polygon fill="black" stroke="black" points="171.43,-190.15 173.68,-179.8 165.47,-186.49 171.43,-190.15"/>
</g>
<!-- 008C4878 -->
<g id="node3" class="node">
<title>008C4878</title>
<ellipse fill="none" stroke="blue" cx="63" cy="-90" rx="27" ry="18"/>
<text text-anchor="middle" x="63" y="-86.3" font-family="Times New Roman,serif" font-size="14.00">svsf</text>
</g>
<!-- 008C1740&#45;&gt;008C4878 -->
<g id="edge2" class="edge">
<title>008C1740&#45;&gt;008C4878</title>
<path fill="none" stroke="black" d="M90.65,-144.76C86.29,-136.28 80.85,-125.71 75.96,-116.2"/>
<polygon fill="black" stroke="black" points="78.99,-114.44 71.3,-107.15 72.77,-117.64 78.99,-114.44"/>
</g>
<!-- 008C17B8 -->
<g id="node6" class="node">
<title>008C17B8</title>
<ellipse fill="none" stroke="blue" cx="135" cy="-90" rx="27" ry="18"/>
<text text-anchor="middle" x="135" y="-86.3" font-family="Times New Roman,serif" font-size="14.00">sbvf</text>
</g>
<!-- 008C1740&#45;&gt;008C17B8 -->
<g id="edge5" class="edge">
<title>008C1740&#45;&gt;008C17B8</title>
<path fill="none" stroke="black" d="M107.35,-144.76C111.71,-136.28 117.15,-125.71 122.04,-116.2"/>
<polygon fill="black" stroke="black" points="125.23,-117.64 126.7,-107.15 119.01,-114.44 125.23,-117.64"/>
</g>
<!-- 008C4968 -->
<g id="node4" class="node">
<title>008C4968</title>
<ellipse fill="none" stroke="blue" cx="27" cy="-18" rx="27" ry="18"/>
<text text-anchor="middle" x="27" y="-14.3" font-family="Times New Roman,serif" font-size="14.00">sad</text>
</g>
<!-- 008C4878&#45;&gt;008C4968 -->
<g id="edge3" class="edge">
<title>008C4878&#45;&gt;008C4968</title>
<path fill="none" stroke="black" d="M54.65,-72.76C50.29,-64.28 44.85,-53.71 39.96,-44.2"/>
<polygon fill="black" stroke="black" points="42.99,-42.44 35.3,-35.15 36.77,-45.64 42.99,-42.44"/>
</g>
<!-- 008C48F0 -->
<g id="node5" class="node">
<title>008C48F0</title>
<ellipse fill="none" stroke="blue" cx="99" cy="-18" rx="27" ry="18"/>
<text text-anchor="middle" x="99" y="-14.3" font-family="Times New Roman,serif" font-size="14.00">yuth</text>
</g>
<!-- 008C4878&#45;&gt;008C48F0 -->
<g id="edge4" class="edge">
<title>008C4878&#45;&gt;008C48F0</title>
<path fill="none" stroke="black" d="M71.35,-72.76C75.71,-64.28 81.15,-53.71 86.04,-44.2"/>
<polygon fill="black" stroke="black" points="89.23,-45.64 90.7,-35.15 83.01,-42.44 89.23,-45.64"/>
</g>
</g>
</svg>
